<svg xmlns="http://www.w3.org/2000/svg" xmlns:xlink="http://www.w3.org/1999/xlink" viewBox="0,0,256,256" width="100px" height="100px" fill-rule="nonzero"><g fill="none" fill-rule="nonzero" stroke="none" stroke-width="1" stroke-linecap="butt" stroke-linejoin="miter" stroke-miterlimit="10" stroke-dasharray="" stroke-dashoffset="0" font-family="none" font-weight="none" font-size="none" text-anchor="none" style="mix-blend-mode: normal"><g transform="scale(2.56,2.56)"><circle cx="13" cy="29" r="2" fill="#cc5de8"></circle><circle cx="77" cy="13" r="1" fill="#f1bc19"></circle><circle cx="50" cy="50" r="37" fill="#fce0a2"></circle><circle cx="83" cy="15" r="4" fill="#f1bc19"></circle><circle cx="87" cy="24" r="2" fill="#cc5de8"></circle><circle cx="81" cy="76" r="2" fill="#fbcd59"></circle><circle cx="15" cy="63" r="4" fill="#fbcd59"></circle><circle cx="25" cy="87" r="2" fill="#cc5de8"></circle><circle cx="19.5" cy="54.5" r="2.5" fill="#ffffff"></circle><circle cx="21" cy="67" r="1" fill="#f1bc19"></circle><circle cx="80" cy="34" r="1" fill="#ffffff"></circle><path d="M66.719,73h-31.438c-4.021,0 -7.281,-3.26 -7.281,-7.281v-31.438c0,-4.021 3.26,-7.281 7.281,-7.281h31.438c4.021,0 7.281,3.26 7.281,7.281v31.438c0,4.021 -3.26,7.281 -7.281,7.281z" fill="#1fab00"></path><path d="M66.271,27h-15.271h-15.271c-4.269,0 -7.729,3.46 -7.729,7.729v15.271c4,9 14,7 23,0c9,7 19,9 23,0v-15.271c0,-4.269 -3.46,-7.729 -7.729,-7.729z" fill="#94e201"></path><path d="M65.157,56.519c-4.143,0 -9.139,-2.057 -14.157,-5.887c-6.14,4.687 -12.245,6.715 -16.797,5.577c-2.98,-0.748 -5.221,-2.769 -6.66,-6.005c-0.028,-0.065 -0.043,-0.134 -0.043,-0.204v-15.271c0,-4.538 3.691,-8.229 8.229,-8.229h30.542c4.538,0 8.229,3.691 8.229,8.229v15.271c0,0.07 -0.015,0.139 -0.043,0.203c-1.438,3.236 -3.679,5.257 -6.66,6.005c-0.831,0.208 -1.714,0.311 -2.64,0.311zM51,49.5c0.108,0 0.217,0.035 0.307,0.105c5.998,4.664 11.918,6.716 16.247,5.632c2.638,-0.661 4.638,-2.459 5.946,-5.344v-15.164c0,-3.986 -3.243,-7.229 -7.229,-7.229h-30.542c-3.986,0 -7.229,3.243 -7.229,7.229v15.164c1.308,2.885 3.308,4.683 5.946,5.344c4.326,1.085 10.25,-0.966 16.247,-5.632c0.09,-0.07 0.199,-0.105 0.307,-0.105zM74,50h0.01z" fill="#472b29"></path><path d="M66.719,73.7h-31.438c-4.401,0 -7.981,-3.58 -7.981,-7.981v-31.438c0,-4.401 3.581,-7.981 7.981,-7.981h31.438c4.401,0 7.981,3.581 7.981,7.981v31.438c0,4.401 -3.58,7.981 -7.981,7.981zM35.281,27.7c-3.629,0 -6.581,2.952 -6.581,6.581v31.438c0,3.629 2.952,6.581 6.581,6.581h31.438c3.629,0 6.581,-2.952 6.581,-6.581v-31.438c0,-3.629 -2.952,-6.581 -6.581,-6.581z" fill="#472b29"></path><ellipse cx="51" cy="53" rx="4" ry="6" fill="#ef9922"></ellipse><path d="M51,59.25c-2.343,0 -4.25,-2.804 -4.25,-6.25c0,-3.446 1.907,-6.25 4.25,-6.25c2.343,0 4.25,2.804 4.25,6.25c0,3.446 -1.907,6.25 -4.25,6.25zM51,47.25c-2.068,0 -3.75,2.58 -3.75,5.75c0,3.171 1.682,5.75 3.75,5.75c2.068,0 3.75,-2.579 3.75,-5.75c0,-3.17 -1.682,-5.75 -3.75,-5.75z" fill="#472b29"></path><g fill="#ffffff"><ellipse cx="39" cy="41.5" rx="6.5" ry="8"></ellipse></g><g fill="#1f212b"><path d="M39,37.458c-0.405,0 -0.791,0.125 -1.144,0.346c0.432,0.33 0.715,0.864 0.715,1.471c0,1.003 -0.768,1.817 -1.714,1.817c-0.273,0 -0.528,-0.074 -0.758,-0.195c-0.058,0.355 -0.099,0.72 -0.099,1.103c0,2.508 1.343,4.542 3,4.542c1.657,0 3,-2.034 3,-4.542c0,-2.508 -1.343,-4.542 -3,-4.542z"></path></g><g fill="#ffffff"><ellipse cx="63" cy="41.5" rx="6.5" ry="8"></ellipse></g><g fill="#472b29"><path d="M44.506,46.003c-0.039,0 -0.077,-0.009 -0.114,-0.027c-0.123,-0.063 -0.172,-0.213 -0.109,-0.336c0.632,-1.238 0.966,-2.669 0.966,-4.14c0,-4.273 -2.804,-7.75 -6.25,-7.75c-1.146,0 -2.266,0.388 -3.241,1.123c-0.11,0.082 -0.267,0.062 -0.35,-0.049c-0.083,-0.11 -0.061,-0.267 0.049,-0.35c1.062,-0.8 2.287,-1.224 3.542,-1.224c3.722,0 6.75,3.701 6.75,8.25c0,1.549 -0.353,3.059 -1.021,4.367c-0.043,0.087 -0.131,0.136 -0.222,0.136z"></path></g><g fill="#472b29"><path d="M32.5,41.75c-0.138,0 -0.25,-0.112 -0.25,-0.25c0,-2.019 0.602,-3.962 1.695,-5.47c0.082,-0.113 0.239,-0.135 0.349,-0.056c0.112,0.081 0.137,0.238 0.056,0.349c-1.032,1.424 -1.601,3.263 -1.601,5.177c0.001,0.138 -0.111,0.25 -0.249,0.25z"></path></g><g fill="#472b29"><path d="M39,49.75c-2.998,0 -5.594,-2.353 -6.461,-5.854c-0.033,-0.134 0.048,-0.27 0.183,-0.303c0.134,-0.034 0.27,0.048 0.303,0.183c0.81,3.274 3.211,5.474 5.975,5.474c1.513,0 2.973,-0.68 4.112,-1.916c0.094,-0.102 0.252,-0.108 0.353,-0.014c0.102,0.093 0.108,0.251 0.014,0.353c-1.234,1.34 -2.825,2.077 -4.479,2.077z"></path></g><g fill="#472b29"><path d="M63,49.75c-3.722,0 -6.75,-3.701 -6.75,-8.25c0,-1.614 0.381,-3.178 1.102,-4.521c0.065,-0.122 0.218,-0.166 0.338,-0.102c0.122,0.065 0.167,0.217 0.102,0.338c-0.682,1.271 -1.042,2.753 -1.042,4.285c0,4.273 2.804,7.75 6.25,7.75c1.167,0 2.305,-0.402 3.292,-1.163c0.11,-0.084 0.267,-0.064 0.351,0.045c0.084,0.109 0.064,0.267 -0.045,0.351c-1.076,0.829 -2.32,1.267 -3.598,1.267z"></path></g><g fill="#472b29"><path d="M67.821,47.116c-0.052,0 -0.104,-0.016 -0.148,-0.049c-0.111,-0.082 -0.135,-0.238 -0.053,-0.349c1.051,-1.43 1.63,-3.283 1.63,-5.218c0,-4.273 -2.804,-7.75 -6.25,-7.75c-1.523,0 -2.99,0.688 -4.132,1.937c-0.093,0.102 -0.251,0.111 -0.353,0.016c-0.102,-0.093 -0.109,-0.251 -0.016,-0.353c1.238,-1.354 2.836,-2.1 4.501,-2.1c3.722,0 6.75,3.701 6.75,8.25c0,2.041 -0.614,3.999 -1.728,5.514c-0.049,0.067 -0.125,0.102 -0.201,0.102z"></path></g><g fill="#1f212b"><path d="M63,37.458c-0.405,0 -0.791,0.125 -1.144,0.346c0.432,0.33 0.715,0.864 0.715,1.471c0,1.003 -0.768,1.817 -1.714,1.817c-0.273,0 -0.528,-0.074 -0.758,-0.195c-0.058,0.355 -0.099,0.72 -0.099,1.103c0,2.508 1.343,4.542 3,4.542c1.657,0 3,-2.034 3,-4.542c0,-2.508 -1.343,-4.542 -3,-4.542z"></path></g><g fill="#ffce00"><path d="M56,51.5c0,1.5 -3,5.5 -5,5.5c-2,0 -5,-4 -5,-5.5c0,-2.485 2.239,-4.5 5,-4.5c2.761,0 5,2.015 5,4.5z"></path></g><g fill="#fff3b7"><ellipse cx="51" cy="49" rx="2" ry="1"></ellipse></g><g fill="#472b29"><path d="M51,57.25c-2.087,0 -5.25,-4.083 -5.25,-5.75c0,-0.872 0.263,-1.725 0.761,-2.466c0.078,-0.115 0.233,-0.144 0.347,-0.068c0.114,0.077 0.145,0.232 0.068,0.347c-0.442,0.658 -0.676,1.415 -0.676,2.187c0,1.415 2.944,5.25 4.75,5.25c1.806,0 4.75,-3.835 4.75,-5.25c0,-2.343 -2.131,-4.25 -4.75,-4.25c-1.057,0 -2.058,0.304 -2.895,0.88c-0.112,0.078 -0.269,0.05 -0.348,-0.064c-0.078,-0.114 -0.049,-0.269 0.064,-0.348c0.92,-0.633 2.019,-0.968 3.178,-0.968c2.895,0 5.25,2.131 5.25,4.75c0.001,1.667 -3.162,5.75 -5.249,5.75z"></path></g></g></g></svg>